# xmcd CD database file
#
# Track frame offsets:
#	180
#	17387
#	40630
#	55637
#	73480
#	88177
#	105227
#	115750
#	132557
#	152220
#	156460
#	173135
#	182950
#	205527
#	226140
#	241907
#	255952
#	270237
#	286112
#	302202
#	310815
#
# Disc length: 4413 seconds
#
# Revision: 2
# Processed by: cddbd v1.5.2PL0 Copyright (c) Steve Scherf et al.
# Submitted via: CDex 1.70beta2
#
DISCID=10113b15
DTITLE=Mississippi John Hurt - In Concert
DYEAR=1995
DGENRE=Blues
TTITLE0=Nobody's Business But Mine
TTITLE1=The Angels Laid Him Away
TTITLE2=Baby What's Wrong With You
TTITLE3=Casey Jones
TTITLE4=Candy Man
TTITLE5=Lonesome Blues
TTITLE6=My Creole Belle
TTITLE7=Make Me A Pallet On YOur Floor
TTITLE8=Trouble I Had All My Days
TTITLE9=C-h-i-c-k-e-n Blues
TTITLE10=Coffee Blues
TTITLE11=Shake That Thing
TTITLE12=Monday Morning Blues
TTITLE13=Frankie And Albert
TTITLE14=Salty Dog
TTITLE15=Spike Driver's Blues
TTITLE16=Here I Am, Lord, Send Me
TTITLE17=Talking Casey
TTITLE18=Hot Time In The Old Town Tonight
TTITLE19=I'm Satisfied
TTITLE20=Richland Women Blues
EXTD=
EXTT0=
EXTT1=
EXTT2=
EXTT3=
EXTT4=
EXTT5=
EXTT6=
EXTT7=Appropriate for a man whose girlfriend has a heated water bed.
EXTT8=
EXTT9=
EXTT10=
EXTT11=
EXTT12=
EXTT13=
EXTT14=
EXTT15=
EXTT16=
EXTT17=
EXTT18=
EXTT19=
EXTT20=
PLAYORDER=
